<svg xmlns="http://www.w3.org/2000/svg" viewBox="0 0 32 32" width="100%" height="100%">
  <defs>
    <linearGradient id="dirtyGradient" x1="0%" y1="0%" x2="100%" y2="100%">
      <stop offset="0%" style="stop-color:var(--pet-primary, #ff6b9d)"/>
      <stop offset="100%" style="stop-color:var(--pet-secondary, #c44cff)"/>
    </linearGradient>
    <linearGradient id="poopGradient" x1="0%" y1="0%" x2="0%" y2="100%">
      <stop offset="0%" stop-color="#8B6914"/>
      <stop offset="50%" stop-color="#6B4423"/>
      <stop offset="100%" stop-color="#4A2C17"/>
    </linearGradient>
  </defs>

  <!-- Pet body (slightly disheveled) -->
  <ellipse cx="16" cy="18" rx="9" ry="8" fill="url(#dirtyGradient)" opacity="0.85"/>

  <!-- Dirt smudges on body -->
  <ellipse cx="12" cy="20" rx="2" ry="1" fill="#8B6914" opacity="0.4"/>
  <ellipse cx="20" cy="17" rx="1.5" ry="1" fill="#8B6914" opacity="0.3"/>

  <!-- Head -->
  <circle cx="16" cy="12" r="8" fill="url(#dirtyGradient)" opacity="0.85"/>

  <!-- Face highlight (dimmed) -->
  <ellipse cx="13" cy="9" rx="3" ry="2" fill="rgba(255,255,255,0.15)"/>

  <!-- Worried/uncomfortable eyes -->
  <ellipse cx="12" cy="11" rx="2.5" ry="2.5" fill="white"/>
  <circle cx="12" cy="11" r="1.5" fill="var(--pet-eyes, #1a1a2e)"/>
  <circle cx="11.5" cy="10.5" r="0.5" fill="white"/>
  <ellipse cx="20" cy="11" rx="2.5" ry="2.5" fill="white"/>
  <circle cx="20" cy="11" r="1.5" fill="var(--pet-eyes, #1a1a2e)"/>
  <circle cx="19.5" cy="10.5" r="0.5" fill="white"/>

  <!-- Sweat drop -->
  <path d="M24 7 Q25 9 24.5 10 Q24 11 23.5 10 Q23 9 24 7" fill="#87CEEB"/>

  <!-- Uncomfortable wavy mouth -->
  <path d="M13 16 Q14.5 14.5 16 16 Q17.5 17.5 19 16" stroke="var(--pet-eyes, #1a1a2e)" stroke-width="1.2" fill="none" stroke-linecap="round"/>

  <!-- Stink lines -->
  <path d="M4 14 Q5 12 4 10" stroke="#98D982" stroke-width="1" fill="none" stroke-linecap="round" opacity="0.7"/>
  <path d="M6 16 Q7 14 6 12" stroke="#98D982" stroke-width="0.8" fill="none" stroke-linecap="round" opacity="0.5"/>
  <path d="M26 12 Q27 10 26 8" stroke="#98D982" stroke-width="1" fill="none" stroke-linecap="round" opacity="0.7"/>
  <path d="M28 14 Q29 12 28 10" stroke="#98D982" stroke-width="0.8" fill="none" stroke-linecap="round" opacity="0.5"/>

  <!-- Poop pile (left) - classic swirl shape -->
  <ellipse cx="5" cy="26" rx="3" ry="1.5" fill="#4A2C17"/>
  <ellipse cx="5" cy="24.5" rx="2.5" ry="1.5" fill="url(#poopGradient)"/>
  <ellipse cx="5" cy="23" rx="2" ry="1.3" fill="url(#poopGradient)"/>
  <ellipse cx="5" cy="21.8" rx="1.3" ry="1" fill="url(#poopGradient)"/>
  <circle cx="5" cy="20.5" r="0.8" fill="#6B4423"/>
  <!-- Poop shine -->
  <ellipse cx="4" cy="22.5" rx="0.5" ry="0.8" fill="rgba(255,255,255,0.2)"/>

  <!-- Poop pile (right) - smaller -->
  <ellipse cx="27" cy="27" rx="2.5" ry="1.2" fill="#4A2C17"/>
  <ellipse cx="27" cy="25.8" rx="2" ry="1.2" fill="url(#poopGradient)"/>
  <ellipse cx="27" cy="24.8" rx="1.5" ry="1" fill="url(#poopGradient)"/>
  <circle cx="27" cy="23.8" r="0.7" fill="#6B4423"/>
  <!-- Poop shine -->
  <ellipse cx="26.3" cy="25" rx="0.4" ry="0.6" fill="rgba(255,255,255,0.2)"/>

  <!-- Flies buzzing around -->
  <ellipse cx="8" cy="18" rx="0.8" ry="0.5" fill="#2a2a2a"/>
  <path d="M7.5 17.5 Q7 17 6.5 17.5" stroke="#555" stroke-width="0.3" fill="none"/>
  <path d="M8.5 17.5 Q9 17 9.5 17.5" stroke="#555" stroke-width="0.3" fill="none"/>

  <ellipse cx="24" cy="20" rx="0.7" ry="0.4" fill="#2a2a2a"/>
  <path d="M23.5 19.5 Q23 19 22.7 19.3" stroke="#555" stroke-width="0.3" fill="none"/>
  <path d="M24.5 19.5 Q25 19 25.3 19.3" stroke="#555" stroke-width="0.3" fill="none"/>

  <!-- Little feet (dirty) -->
  <ellipse cx="12" cy="25" rx="2.5" ry="1.5" fill="var(--pet-secondary, #c44cff)" opacity="0.8"/>
  <ellipse cx="20" cy="25" rx="2.5" ry="1.5" fill="var(--pet-secondary, #c44cff)" opacity="0.8"/>
</svg>

